HIERARCHY
ROOT Hips
{
   OFFSET 0.00000 0.00000 0.00000
   CHANNELS 6 Xposition Yposition Zposition Zrotation Xrotation Yrotation
   JOINT RightUpLeg
   {
      OFFSET -8.945800 -8.667070 0.101652
      CHANNELS 3 Zrotation Xrotation Yrotation
      JOINT RightLeg
      {
         OFFSET 0.000000 -44.422697 1.372700
         CHANNELS 3 Zrotation Xrotation Yrotation
         JOINT RightFoot
         {
            OFFSET 0.253549 -42.092399 -1.460590
            CHANNELS 3 Zrotation Xrotation Yrotation
            JOINT RightToes
            {
               OFFSET 0.040000 -4.415090 8.499099
               CHANNELS 3 Zrotation Xrotation Yrotation
               End Site
               {
                  OFFSET -0.080000 -0.137448 9.779790
               }
            }
         }
      }
   }
   JOINT Spine
   {
      OFFSET 0.000000 11.890501 0.000000
      CHANNELS 3 Zrotation Xrotation Yrotation
      JOINT Spine1
      {
         OFFSET 0.000000 25.657401 0.127663
         CHANNELS 3 Zrotation Xrotation Yrotation
         JOINT HEad
         {
            OFFSET 0.000000 8.734161 0.011341
            CHANNELS 3 Zrotation Xrotation Yrotation
            End Site
            {
               OFFSET -0.290000 12.774200 2.513950
            }
         }
         JOINT LeftShoulder1
         {
            OFFSET 8.990000 -0.362252 -0.220000
            CHANNELS 3 Zrotation Xrotation Yrotation
            JOINT LeftArm
            {
               OFFSET 10.282700 -0.003380 0.322123
               CHANNELS 3 Zrotation Xrotation Yrotation
               JOINT LeftForeArm
               {
                  OFFSET 32.766900 0.099144 -1.424340
                  CHANNELS 3 Zrotation Xrotation Yrotation
                  JOINT LeftHand
                  {
                     OFFSET 27.564301 0.085362 1.022160
                     CHANNELS 3 Zrotation Xrotation Yrotation
                     End Site
                     {
                        OFFSET 16.744301 -0.600000 1.502910
                     }
                  }
               }
            }
         }
         JOINT RightShoulder
         {
            OFFSET -8.990000 -0.362252 -0.220000
            CHANNELS 3 Zrotation Xrotation Yrotation
            JOINT RightArm
            {
               OFFSET -10.282700 -0.003380 0.322123
               CHANNELS 3 Zrotation Xrotation Yrotation
               JOINT RightForeArm
               {
                  OFFSET -32.897098 0.099144 -1.424340
                  CHANNELS 3 Zrotation Xrotation Yrotation
                  JOINT RightHand
                  {
                     OFFSET -27.492101 0.085362 1.022160
                     CHANNELS 3 Zrotation Xrotation Yrotation
                     End Site
                     {
                        OFFSET -16.631201 -0.600000 1.502910
                     }
                  }
               }
            }
         }
      }
   }
   JOINT LeftUpLeg
   {
      OFFSET 8.945800 -8.667070 0.101652
      CHANNELS 3 Zrotation Xrotation Yrotation
      JOINT LeftLeg
      {
         OFFSET 0.000000 -44.422697 1.372700
         CHANNELS 3 Zrotation Xrotation Yrotation
         JOINT LeftFoot
         {
            OFFSET -0.253549 -42.092399 -1.460590
            CHANNELS 3 Zrotation Xrotation Yrotation
            JOINT LeftToes
            {
               OFFSET -0.040000 -4.415090 8.499099
               CHANNELS 3 Zrotation Xrotation Yrotation
               End Site
               {
                  OFFSET 0.080000 -0.047448 9.779790
               }
            }
         }
      }
   }
}
MOTION
Frames: 15
Frame Time: 0.016667
-883.913 83.0379 428.647 -50.1192 20.746 -79.9335 -22.7373 -28.1492 -24.6062 -23.9155 78.8569 43.1888 23.0008 15.227 -14.526 0.0462048 0.000533403 0.662642 9.88213 41.2911 -6.94684 -0.0049705 0.0095 -0.0107598 12.0033 15.0128 -33.4151 1.59028e-015 1.39149e-015 1.59028e-015 -95.975 -18.6283 -43.7051 -87.6704 36.8402 -22.7537 20.3988 32.1156 -22.119 37.4549 3.27171 -9.09558 125.926 -61.9589 90.7283 73.1462 58.9329 31.3497 18.2565 30.9379 -0.938983 56.384 22.471 -58.4277 -73.3341 26.5419 82.6738 -55.0459 -7.70275 -17.8683 4.04755e-009 1.55984e-007 -4.8394e-009 
-881.606 82.973 429.969 -46.2558 19.9247 -82.3787 -16.098 -30.9419 -26.3427 -54.0599 72.0675 68.4361 27.7077 17.9296 -14.439 0.0462048 0.000533403 0.662642 7.15438 39.3501 -5.26095 0.00046843 0.10637 -0.03803 12.0323 14.1181 -32.8245 1.59028e-015 3.97569e-016 1.59028e-015 -97.1777 -19.3505 -44.8818 -88.2017 37.769 -22.0542 20.0848 32.1061 -21.4325 37.1925 3.6871 -9.07282 127.37 -60.4792 92.1312 73.7074 59.5314 31.6866 18.1497 30.6654 -1.23679 52.2027 18.6858 -53.218 -77.0127 26.3569 87.6326 -52.2966 -6.94227 -19.0109 4.04755e-009 1.55984e-007 -4.83941e-009 
-879.197 83.3343 431.386 -42.9882 19.2343 -84.3596 -10.1555 -33.646 -28.0122 -67.4539 64.8208 77.3311 29.9853 20.4717 -13.7553 0.0462048 0.000533403 0.662642 5.3564 38.7818 -4.61668 0.0125084 0.10043 -0.0366506 11.9122 12.5268 -31.7406 1.10348e-032 3.97569e-016 -1.59028e-015 -98.6536 -20.4683 -46.7329 -89.1642 38.8406 -21.1861 19.5765 32.0368 -20.082 36.9173 3.7747 -8.36228 128.714 -58.8577 93.5065 74.3169 60.177 31.8778 18.0294 30.0061 -1.85717 48.7624 15.0353 -48.6117 -79.6008 26.0488 91.9655 -49.4617 -6.42145 -19.8215 4.04755e-009 1.55984e-007 -4.8394e-009 
-876.555 84.1293 432.953 -40.2155 18.754 -85.9822 -5.47576 -35.7448 -29.9081 -71.7531 58.5501 77.5868 30.1932 22.5616 -12.45 0.0462048 0.000533403 0.662642 4.46868 39.3903 -4.8626 0.0213186 0.09193 -0.035091 11.6097 10.3125 -30.1945 0 0 -0 -100.534 -21.8598 -49.5068 -90.3641 39.783 -20.1869 19.281 31.9754 -19.3397 36.5415 3.52535 -7.04528 129.811 -57.1384 94.6609 74.97 60.8447 31.9692 17.7584 29.6038 -2.09436 45.8566 11.5712 -44.4039 -80.983 25.649 95.46 -46.3902 -6.21069 -20.12 4.04755e-009 1.55984e-007 -4.83941e-009 
-873.753 85.1788 434.612 -37.8348 18.5069 -87.3564 -2.76655 -37.4708 -32.1848 -73.3499 53.8691 76.5036 29.1915 23.9466 -10.8461 0.0462048 0.000533403 0.662642 4.48365 40.9642 -5.90961 0.0267886 0.08394 -0.0343414 11.7764 8.83063 -28.5059 1.59028e-015 -7.95139e-016 -0 -102.896 -23.3903 -53.1228 -91.6627 40.5747 -19.1147 18.9353 31.8643 -18.3259 35.9389 2.97138 -5.20195 130.681 -55.37 95.5335 75.6079 61.5053 32.0019 17.4884 29.0927 -2.46961 43.4496 8.34338 -40.5885 -81.3133 25.1557 98.0676 -43.1029 -6.30326 -19.9709 4.04755e-009 1.55984e-007 -4.8394e-009 
-870.593 86.3702 436.494 -35.6071 18.2982 -88.6652 -0.868795 -37.0772 -34.8046 -68.2818 48.5027 69.4475 26.8187 25.0496 -8.53393 0.0462048 0.000533403 0.662642 4.76116 42.6986 -7.18303 0.0091194 0.02452 -0.0137304 12.0977 7.71849 -26.7993 -1.59028e-015 0 -1.59028e-015 -105.351 -25.007 -56.8487 -93.2953 40.4223 -16.7358 19.4583 32.2231 -19.2011 35.0262 5.54783 -5.38864 133.102 -50.0519 97.6414 76.3439 62.2743 32.0548 17.1872 28.6364 -2.78748 41.0735 5.13083 -36.8177 -80.6561 24.6282 99.8715 -39.3906 -6.55533 -19.1404 4.04755e-009 1.55984e-007 -4.83941e-009 
-867.17 87.4852 438.56 -32.9233 18.3532 -90.4194 0.782429 -34.8493 -37.4085 -58.33 42.0626 58.8313 22.7578 26.3117 -5.46823 0.0462048 0.000533403 0.662642 5.25463 44.0456 -8.24014 0.00996948 0.0214 -0.0118104 12.4576 6.86839 -25.0018 3.18055e-015 -1.19271e-015 6.36111e-015 -108.113 -26.5703 -60.9355 -94.9644 40.2766 -14.6287 19.8468 32.5368 -19.857 33.9792 6.97137 -4.88548 134.433 -45.8291 98.6744 77.0615 63.0537 32.1065 16.8454 28.2232 -3.06438 38.9194 1.71597 -32.5851 -79.0878 24.0132 100.815 -35.2429 -6.87407 -17.6392 4.04755e-009 1.55984e-007 -4.8394e-009 
-863.632 88.4539 440.729 -29.7685 18.5598 -92.7098 2.43594 -31.0228 -39.7612 -46.078 34.1771 48.2971 17.2124 27.6465 -2.21253 0.0462048 0.000533403 0.662642 5.832 45.0132 -8.98042 0.0111294 0.01979 -0.0128606 12.5955 5.97363 -23.0483 7.95139e-016 3.97569e-015 3.18055e-015 -111.2 -28.0206 -65.3131 -96.6885 40.1737 -12.755 20.1086 32.8181 -20.304 32.6559 7.48933 -3.88747 135.232 -42.4091 99.1074 77.6737 63.7572 32.1658 16.4727 27.8657 -3.30475 37.0507 -1.86901 -27.9876 -76.7833 23.2524 100.949 -30.7472 -7.10059 -15.5706 4.04755e-009 1.55984e-007 -4.83941e-009 
-860.08 89.7253 442.804 -26.2125 18.2046 -95.5946 3.90244 -25.0728 -41.5769 -32.1108 23.8143 39.4446 10.4638 29.6299 0.574807 0.0462048 0.000533403 0.662642 5.45251 45.6301 -9.22726 -0.00362116 0.01514 -0.0248798 12.436 4.92225 -20.2851 -7.95139e-016 -3.97569e-016 -3.18055e-015 -115.252 -30.9883 -70.8044 -98.4042 40.085 -10.8773 23.8759 36.4806 -19.8273 28.3333 7.19796 -4.81891 135.29 -38.0482 94.3995 79.1105 64.3344 31.9661 17.0921 23.6363 -0.22972 34.9437 -6.45069 -22.9262 -73.6253 23.2356 101.476 -21.5104 -8.07757 -12.6739 4.04755e-009 1.55984e-007 -4.8394e-009 
-856.669 90.8977 444.724 -22.4143 17.2814 -98.9582 4.5057 -15.1923 -43.3625 -13.4165 8.33327 33.6173 1.90389 34.5045 3.13151 0.0462048 0.000533403 0.662642 4.15643 45.5292 -8.80587 -0.00440018 -0.00829999 -0.00325978 11.9243 4.00441 -17.1597 -2.78299e-015 -4.57205e-015 6.36111e-015 -120.576 -34.8983 -77.2517 -100.063 39.9958 -8.97873 29.5955 40.9928 -19.4533 24.5404 6.36014 -5.39498 133.966 -34.5779 88.7729 81.2255 64.6256 31.5194 16.9605 23.2017 1.26534 32.7382 -11.4298 -17.916 -69.0353 23.8129 101.301 -9.71536 -8.54664 -8.86165 4.04755e-009 1.55984e-007 -4.83941e-009 
-853.519 92.0346 446.47 -18.5676 15.7793 -102.694 4.6725 -7.83206 -43.887 0.794652 -3.3991 34.9617 -5.26149 36.2579 3.91112 0.0462048 0.000533403 0.662642 2.04396 44.793 -7.80074 -0.0049427 -0.01093 -0.00237924 11.0779 3.08203 -13.713 3.97569e-016 1.59028e-015 3.18055e-015 -127.706 -39.2044 -85.1654 -101.585 39.9585 -6.98908 32.0772 41.615 -20.4448 21.1821 5.14837 -5.73274 131.547 -31.4482 82.5701 80.7838 65.5599 33.7581 16.6629 24.0024 1.91866 30.3963 -16.3475 -13.3108 -62.7809 24.6633 99.9125 3.36141 -7.57662 -4.73965 4.04755e-009 1.55984e-007 -4.83942e-009 
-850.854 93.0622 447.881 -14.9516 13.0353 -107.709 5.28257 -9.23053 -39.9396 0.573087 -3.31783 33.8461 -10.0329 29.3638 3.27093 0.0462048 0.000533403 0.662642 -2.49471 42.6431 -4.85423 -0.00550796 -0.02915 -0.00237924 10.1221 2.82841 -10.4536 -2.88238e-015 -3.00662e-015 -6.36111e-015 -139.555 -44.7882 -96.8489 -102.844 40.6013 -4.195 25.9271 33.9835 -23.0157 19.9191 3.38398 -4.44574 128.842 -30.3111 78.8427 80.0439 66.0704 35.964 15.9094 27.0139 0.768359 27.5916 -20.9504 -9.04814 -54.6934 26.319 97.0138 17.8787 -4.7307 -1.23277 4.04756e-009 1.55984e-007 -4.83941e-009 
-848.35 94.8592 449.217 -12.2604 10.5272 -111.819 5.84511 -10.0933 -35.6972 0.00488999 -3.0751 29.4617 -15.36 22.5524 3.10126 0.0462048 0.000533403 0.662642 -6.05687 40.0935 -2.91429 -0.00607305 -0.02213 -0.00237924 9.08068 3.08761 -7.40015 -2.38542e-015 3.97569e-016 3.18055e-015 -150.144 -47.7067 -107.366 -104.55 41.1932 -2.01191 24.8112 32.3979 -22.3951 19.1487 2.5563 -3.60357 126.818 -28.8384 76.2528 79.3411 66.4612 37.8209 16.0855 27.2233 0.527568 27.7017 -23.6028 -7.62715 -50.0973 28.8409 95.392 9.28478 -2.14518 -0.513865 4.04755e-009 1.55984e-007 -4.8394e-009 
-848.233 95.8324 449.353 -10.3633 8.40366 -115.168 6.20354 -10.6985 -31.2502 -0.646135 -2.71477 22.7781 -20.6348 16.2575 2.26594 0.0462048 0.000533403 0.662642 -8.72051 37.3797 -1.75166 -0.00661788 -0.01306 -0.00237924 7.98715 3.7734 -4.57022 4.96962e-015 1.59028e-015 -3.18055e-015 -158.869 -49.3002 -116.198 -106.269 41.6578 -0.395552 22.2046 29.0189 -23.3605 18.725 2.56409 -2.95604 125.365 -27.3914 74.5172 78.7936 66.8757 39.2553 15.7369 28.7797 -0.323186 28.2866 -26.0562 -6.61696 -48.353 32.4909 94.3409 8.06935 -1.64238 -0.431291 4.04755e-009 1.55984e-007 -4.8394e-009 
-848.374 96.7613 449.513 -9.12826 6.72733 -117.892 6.48939 -11.2553 -26.4517 -1.58772 -2.19516 14.2668 -25.1188 11.0033 1.18699 0.0462048 0.000533403 0.662642 -10.6066 34.6584 -1.14435 -0.00712148 -0.00392997 -0.00237924 6.85649 4.78841 -1.96919 3.97569e-016 -1.98785e-015 -0 -165.827 -50.3702 -123.43 -107.729 42.0256 0.769245 22.0837 28.7203 -22.4321 18.5278 3.27752 -2.45585 124.339 -26.0955 73.3664 78.4416 67.3661 40.2717 15.7679 28.7816 -0.476386 29.5206 -27.6906 -6.1597 -48.8546 34.7468 94.6747 2.97218 -1.40464 -0.581692 4.04755e-009 1.55984e-007 -4.8394e-009 
